# AST/ASF file generated using VICON BodyLanguage
# -----------------------------------------------
:version 1.10
:name VICON
:units
  mass 1.0
  length 0.45
  angle deg
:documentation
   .ast/.asf automatically generated from VICON data using
   VICON BodyBuilder and BodyLanguage model FoxedUp or BRILLIANT.MOD
:root
   order TX TY TZ RX RY RZ
   axis XYZ
   position 0 0 0  
   orientation 0 0 0 
:bonedata
  begin
     id 1 
     name lhipjoint
     direction 0.561001 -0.76473 0.316963 
     length 2.4722 
     axis 0 0 0  XYZ
  end
  begin
     id 2 
     name lfemur
     direction 0.34202 -0.939693 0  
     length 7.59403  
     axis 0 0 20  XYZ
    dof rx ry rz
    limits (-160.0 20.0)
           (-70.0 70.0)
           (-60.0 70.0)
  end
  begin
     id 3 
     name ltibia
     direction 0.34202 -0.939693 0   
     length 7.89655   
     axis 0 0 20   XYZ
    dof rx
    limits (-10.0 170.0)
  end
  begin
     id 4 
     name lfoot
     direction 0.061296 -0.168409 0.98381   
     length 2.73287   
     axis -90 7.62852e-016 20   XYZ
    dof rx rz
    limits (-45.0 90.0)
           (-70.0 20.0)
  end
  begin
     id 5 
     name ltoes
     direction 1.53547e-011 -4.21984e-011 1   
     length 1.37057   
     axis -90 7.62852e-016 20   XYZ
    dof rx
    limits (-90.0 20.0)
  end
  begin
     id 6 
     name rhipjoint
     direction -0.559611 -0.765599 0.317323   
     length 2.46939  
     axis 0 0 0  XYZ 
  end
  begin
     id 7 
     name rfemur
     direction -0.34202 -0.939693 0   
     length 7.53712   
     axis 0 0 -20   XYZ
    dof rx ry rz
    limits (-160.0 20.0)
           (-70.0 70.0)
           (-70.0 60.0)
  end
  begin
     id 8 
     name rtibia
     direction -0.34202 -0.939693 0   
     length 8.12549   
     axis 0 0 -20   XYZ
    dof rx
    limits (-10.0 170.0)
 end
 begin
     id 9 
     name rfoot
     direction -0.066984 -0.184037 0.980634   
     length 2.67541  
     axis -90 -7.62852e-016 -20   XYZ
    dof rx rz
    limits (-45.0 90.0)
           (-20.0 70.0)
  end
  begin
     id 10 
     name rtoes
     direction -1.53549e-011 -4.21786e-011 1   
     length 1.34085   
     axis -90 -7.62852e-016 -20   XYZ
    dof rx
    limits (-90.0 20.0)
  end
  begin
     id 11 
     name lowerback
     direction -0.0522728 0.992594 -0.109658   
     length 2.05633   
     axis 0 0 0   XYZ
    dof rx ry rz
    limits (-20.0 45.0)
           (-30.0 30.0)
           (-30.0 30.0)
  end
  begin
     id 12 
     name upperback
     direction 0.00589338 0.999977 0.00335704   
     length 2.05845   
     axis 0 0 0   XYZ
    dof rx ry rz
    limits (-20.0 45.0)
           (-30.0 30.0)
           (-30.0 30.0)
  end
  begin
     id 13 
     name thorax
     direction 0.0292928 0.998059 0.0549487   
     length 2.09281   
     axis 0 0 0   XYZ
    dof rx ry rz
    limits (-20.0 45.0)
           (-30.0 30.0)
           (-30.0 30.0)
  end
  begin
     id 14 
     name lowerneck
     direction 0.0356368 0.980775 0.191858   
     length 1.84767   
     axis 0 0 0   XYZ
    dof rx ry rz
    limits (-20.0 45.0)
           (-30.0 30.0)
           (-30.0 30.0)
  end
  begin
     id 15 
     name upperneck
     direction -0.0227605 0.98931 -0.14404   
     length 1.89582   
     axis 0 0 0   XYZ
    dof rx ry rz
    limits (-20.0 45.0)
           (-30.0 30.0)
           (-30.0 30.0)
  end
  begin
     id 16
     name head
     direction -0.00932985 0.997511 -0.0698904  
     length 1.90213  
     axis 0 0 0   XYZ
    dof rx ry rz
    limits (-20.0 45.0)
           (-30.0 30.0)
           (-30.0 30.0)
  end
  begin
     id 17 
     name lclavicle
     direction 0.873442 0.479511 0.0846686  
     length 3.41193  
     axis 0 0 0   XYZ
    dof ry rz
    limits (-20.0 10.0)
           (0.0 20.0)
  end
  begin
     id 18 
     name lhumerus
     direction 1 -4.4897e-011 -5.62117e-018   
     length 5.59864   
     axis 180 -30 -90   XYZ
    dof rx ry rz
    limits (-60.0 90.0)
           (-90.0 90.0)
           (-90.0 90.0)
  end
  begin
     id 19
     name lradius
     direction 1 -4.48966e-011 -6.26295e-027   
     length 3.59542   
     axis 180 -30 -90   XYZ
    dof rx
    limits (-10.0 170.0)
  end
  begin
     id 20
     name lwrist
     direction 1 -4.48947e-011 -1.74096e-026   
     length 1.79771   
     axis 1.04567e-014 90 90   XYZ
    dof ry
    limits (-180.0 0.0)
 end
  begin
     id 21 
     name lhand
     direction 1 -4.49085e-011 -3.48469e-026   
     length 0.572014   
     axis 2.22196e-014 90 90   XYZ
    dof rx rz
    limits (-90.0 90.0)
           (-45.0 45.0)
  end
  begin
     id 22 
     name lfingers
     direction 1 -4.48884e-011 -6.96135e-026   
     length 0.461173   
     axis 4.44383e-014 90 90   XYZ
    dof rx
    limits (0.0 90.0)
  end
  begin
     id 23
     name lthumb
     direction 0.707107 -6.34976e-011 0.707107   
     length 0.662154   
     axis -90 45 -5.4397e-014   XYZ
    dof rx rz
    limits (-45.0 45.0)
           (-45.0 45.0)
  end
  begin
     id 24 
     name rclavicle
     direction -0.890242 0.443271 0.104786   
     length 3.46753  
     axis 0 0 0   XYZ 
    dof ry rz
    limits (-10.0 20.0)
           (-20.0 0.0)
  end
  begin
     id 25 
     name rhumerus
     direction -1 -4.48963e-011 -5.41723e-018  
     length 5.8094   
     axis 180 30 90   XYZ
    dof rx ry rz
    limits (-90.0 60.0)
           (-90.0 90.0)
           (-90.0 90.0)
  end
  begin
     id 26 
     name rradius
     direction -1 -4.48958e-011 -6.51059e-027   
     length 3.66953   
     axis 180 30 90   XYZ
    dof rx
    limits (-10.0 170.0)
  end
  begin
     id 27 
     name rwrist
     direction -1 -4.48975e-011 -1.74124e-026   
     length 1.83476   
     axis 1.04567e-014 -90 -90   XYZ
    dof ry
    limits (-180.0 0.0)
  end
  begin
     id 28
     name rhand
     direction -1 -4.49013e-011 -3.48326e-026   
     length 0.57843   
     axis 2.22196e-014 -90 -90   XYZ
    dof rx rz
    limits (-90.0 90.0)
           (-45.0 45.0)
  end
  begin
     id 29
     name rfingers
     direction -1 -4.49023e-011 -6.9669e-026   
     length 0.466345   
     axis 4.44383e-014 -90 -90   XYZ
    dof rx
    limits (0.0 90.0)
  end
  begin
     id 30
     name rthumb
     direction -0.707107 -6.34926e-011 0.707107   
     length 0.669581   
     axis -90 -45 5.4397e-014   XYZ
    dof rx rz
    limits (-45.0 45.0)
           (-45.0 45.0)
  end
:hierarchy
  begin
    root lhipjoint rhipjoint lowerback
    lhipjoint lfemur
    lfemur ltibia
    ltibia lfoot
    lfoot ltoes
    rhipjoint rfemur
    rfemur rtibia
    rtibia rfoot
    rfoot rtoes
    lowerback upperback
    upperback thorax
    thorax lowerneck lclavicle rclavicle
    lowerneck upperneck
    upperneck head
    lclavicle lhumerus
    lhumerus lradius
    lradius lwrist
    lwrist lhand lthumb
    lhand lfingers
    rclavicle rhumerus
    rhumerus rradius
    rradius rwrist
    rwrist rhand rthumb
    rhand rfingers
  end

#!OML:ASF H:\SkateBoarding\Project 1\Capture day 1\Session 1\Skater.ASF
:FULLY-SPECIFIED
:DEGREES
1
root -14.1188 19.0112 -43.1699 7.67917 72.1482 6.48209
lowerback 13.3653 -3.21774 -0.135699
upperback -0.331921 -4.17222 1.27728
thorax -7.74525 -1.98216 2.25572
lowerneck -17.3293 -6.98082 -2.16158
upperneck 38.8984 -9.89654 1.99913
head 17.4225 -3.73175 -0.556663
rclavicle -5.06901e-015 -8.74653e-015
rhumerus -32.6118 9.66049 -76.2759
rradius 41.6648
rwrist -15.8055
rhand -38.1815 -2.57419
rfingers 7.12502
rthumb -11.2143 -32.2545
lclavicle -5.06901e-015 -8.74653e-015
lhumerus -34.7057 -43.5503 114.914
lradius 67.5205
lwrist 35.2255
lhand -24.4673 21.3923
lfingers 7.12502
lthumb 2.02601 51.3624
rfemur -23.64 -15.3664 18.7028
rtibia 53.0246
rfoot -42.3525 -0.281975
rtoes -20.0955
lfemur -6.18194 -4.12362 -14.7057
ltibia 35.187
lfoot -39.7506 -16.3967
ltoes 14.5937
2
root -14.1008 19.0543 -42.8542 7.06445 72.6548 5.82372
lowerback 13.208 -3.21648 -0.0331582
upperback -0.390432 -4.15495 1.2994
thorax -7.72558 -1.9783 2.21061
lowerneck -17.1452 -7.14544 -2.31589
upperneck 38.6749 -10.1721 2.21624
head 17.2926 -3.84686 -0.478336
rclavicle 3.95581e-014 4.77083e-015
rhumerus -32.8758 9.31694 -76.4057
rradius 41.661
rwrist -15.7222
rhand -37.956 -2.52822
rfingers 7.12502
rthumb -10.9968 -32.2202
lclavicle 3.95581e-014 4.77083e-015
lhumerus -35.534 -43.7726 115.241
lradius 66.8605
lwrist 35.0854
lhand -23.9702 20.9423
lfingers 7.12502
lthumb 2.50615 50.9073
rfemur -23.0707 -14.0328 18.7919
rtibia 52.1075
rfoot -43.1637 -0.776815
rtoes -18.8883
lfemur -5.70886 -4.79521 -14.7067
ltibia 34.2497
lfoot -40.5766 -15.4693
ltoes 13.3667
3
root -14.0825 19.0881 -42.5442 7.12163 73.1339 5.86024
lowerback 13.0374 -3.30121 -0.169548
upperback -0.499093 -4.29778 1.23708
thorax -7.73601 -2.04466 2.24177
lowerneck -16.7302 -7.18393 -2.29554
upperneck 38.4156 -10.284 2.36871
head 17.0619 -3.88712 -0.414923
rclavicle -1.61513e-014 -1.59028e-015
rhumerus -33.1192 8.92672 -76.6552
rradius 41.602
rwrist -15.8136
rhand -37.5553 -2.0872
rfingers 7.12502
rthumb -10.6103 -31.7993
lclavicle -1.61513e-014 -1.59028e-015
lhumerus -36.4059 -43.6663 115.368
lradius 66.2129
lwrist 34.8887
lhand -23.5281 20.4994
lfingers 7.12502
lthumb 2.93308 50.459
rfemur -22.5121 -12.7433 18.6328
rtibia 51.2856
rfoot -44.1225 -1.0884
rtoes -17.9116
lfemur -5.3177 -5.47956 -14.9647
ltibia 33.4789
lfoot -42.237 -11.793
ltoes 7.80952
4
root -14.0647 19.1122 -42.233 6.98345 73.4159 5.53135
lowerback 12.6849 -3.24603 -0.2626
upperback -0.595961 -4.24317 1.24095
thorax -7.63514 -2.0177 2.26778
lowerneck -16.4597 -7.33594 -2.45313
upperneck 38.1881 -10.5408 2.59811
head 16.9142 -3.9962 -0.323774
rclavicle -4.30369e-014 2.78299e-015
rhumerus -33.3073 8.42933 -76.8121
rradius 41.4022
rwrist -15.3396
rhand -35.4166 -2.43633
rfingers 7.12502
rthumb -8.54685 -32.2434
lclavicle -4.30369e-014 2.78299e-015
lhumerus -37.2188 -43.8562 115.615
lradius 65.528
lwrist 34.8984
lhand -23.1821 20.0926
lfingers 7.12502
lthumb 3.26729 50.0473
rfemur -22.12 -11.4689 18.6441
rtibia 50.4509
rfoot -45.1138 -1.14669
rtoes -17.0614
lfemur -5.1459 -6.4933 -15.2572
ltibia 32.73
lfoot -42.1643 -13.1507
ltoes 11.6604
5
root -14.0442 19.1457 -41.9362 7.49833 73.9992 5.98722
lowerback 12.4794 -3.27221 -0.25418
upperback -0.623978 -4.28648 1.14806
thorax -7.55511 -2.04334 2.16013
lowerneck -16.4185 -7.56885 -2.70745
upperneck 38.0118 -10.9209 2.89318
head 16.8732 -4.15292 -0.223613
rclavicle 2.44008e-014 -2.78299e-015
rhumerus -33.376 7.41708 -76.7681
rradius 41.2533
rwrist -15.1628
rhand -34.7505 -2.37108
rfingers 7.12502
rthumb -7.90398 -32.2033
lclavicle 2.44008e-014 -2.78299e-015
lhumerus -37.8995 -44.1945 115.851
lradius 64.7862
lwrist 34.9009
lhand -22.8496 19.6747
lfingers 7.12502
lthumb 3.58838 49.6243
rfemur -21.5865 -9.9761 18.4235
rtibia 49.6725
rfoot -46.2404 -4.44366
rtoes -20.7705
lfemur -4.97946 -7.57093 -15.7353
ltibia 32.0902
lfoot -42.8335 -11.9121
ltoes 11.4071
6
root -14.0259 19.1739 -41.6282 7.22092 74.3995 5.72672
lowerback 12.3829 -3.29135 -0.286799
upperback -0.655747 -4.3212 1.1102
thorax -7.53389 -2.06062 2.13957
lowerneck -16.2408 -7.72991 -2.90923
upperneck 37.8596 -11.2047 3.18094
head 16.8051 -4.26612 -0.111062
rclavicle 3.25013e-014 -4.37326e-015
rhumerus -33.3692 6.73955 -76.8472
rradius 40.9638
rwrist -15.2455
rhand -34.0651 -2.27097
rfingers 7.12502
rthumb -7.24239 -32.127
lclavicle 3.25013e-014 -4.37326e-015
lhumerus -38.5963 -44.2136 115.916
lradius 64.0015
lwrist 34.9051
lhand -22.5286 19.1567
lfingers 7.12502
lthumb 3.89833 49.1008
rfemur -20.9837 -8.18493 18.495
rtibia 48.9173
rfoot -47.6293 -6.31931
rtoes -22.4567
lfemur -4.75071 -8.3215 -15.924
ltibia 31.5958
lfoot -43.2146 -10.6987
ltoes 10.3181
7
root -14.0094 19.1993 -41.3176 7.07632 74.5578 5.4972
lowerback 12.2143 -3.2682 -0.420286
upperback -0.775201 -4.31822 1.04886
thorax -7.56134 -2.05578 2.14279
lowerneck -15.9003 -7.85618 -3.10141
upperneck 37.7201 -11.4468 3.49487
head 16.7058 -4.36041 0.0265562
rclavicle -1.23246e-014 1.59028e-015
rhumerus -33.5834 5.73537 -77.0903
rradius 40.6551
rwrist -14.7581
rhand -33.644 -2.36774
rfingers 7.12502
rthumb -6.8359 -32.2374
lclavicle -1.23246e-014 1.59028e-015
lhumerus -39.3916 -44.0006 115.907
lradius 63.1916
lwrist 34.8654
lhand -22.1159 18.6367
lfingers 7.12502
lthumb 4.29684 48.5731
rfemur -20.6921 -7.80294 18.482
rtibia 48.2716
rfoot -48.0179 -6.92686
rtoes -22.5525
lfemur -4.75958 -8.71026 -16.0676
ltibia 31.4078
lfoot -43.6809 -9.32779
ltoes 9.42076
8
root -13.99 19.2243 -41.0077 7.13652 74.6972 5.44418
lowerback 11.8833 -3.5264 -0.065876
upperback -0.834796 -4.64149 0.697688
thorax -7.48482 -2.23761 1.61325
lowerneck -15.6987 -7.7332 -3.29562
upperneck 37.6869 -11.3931 3.99455
head 16.7028 -4.30218 0.295214
rclavicle -5.53118e-014 -7.95139e-015
rhumerus -33.5623 5.0439 -77.9055
rradius 40.2593
rwrist -14.509
rhand -34.139 -2.51768
rfingers 7.12502
rthumb -7.31372 -32.3713
lclavicle -5.53118e-014 -7.95139e-015
lhumerus -39.939 -43.4043 115.051
lradius 62.3942
lwrist 34.8416
lhand -21.9022 18.0728
lfingers 7.12502
lthumb 4.50319 48.0049
rfemur -20.4235 -7.51325 18.3689
rtibia 47.6773
rfoot -48.0808 -7.04094
rtoes -22.1118
lfemur -4.86351 -9.144 -16.2513
ltibia 31.3653
lfoot -43.9458 -7.9747
ltoes 8.62797
9
root -13.9723 19.2164 -40.7 7.52236 74.9313 5.75719
lowerback 11.6169 -3.49597 -0.304745
upperback -0.868402 -4.64392 0.611346
thorax -7.35755 -2.23437 1.63824
lowerneck -15.6137 -7.90635 -3.55119
upperneck 37.6185 -11.6828 4.27992
head 16.7132 -4.42069 0.408685
rclavicle 3.88376e-014 -1.05356e-014
rhumerus -33.6115 3.91313 -78.0146
rradius 39.932
rwrist -14.4398
rhand -32.6306 -2.57828
rfingers 7.12502
rthumb -5.85759 -32.4773
lclavicle 3.88376e-014 -1.05356e-014
lhumerus -40.5414 -43.2836 114.925
lradius 61.4769
lwrist 34.8968
lhand -21.5693 17.5364
lfingers 7.12502
lthumb 4.82466 47.4614
rfemur -20.1686 -8.57101 18.5223
rtibia 47.2121
rfoot -48.498 -6.08058
rtoes -19.7703
lfemur -5.05232 -9.60364 -16.5469
ltibia 31.4992
lfoot -44.3659 -5.61911
ltoes 4.43609
10
root -13.9539 19.2373 -40.3862 6.96967 74.8831 5.16878
lowerback 11.5487 -3.33527 -0.499515
upperback -0.958804 -4.4573 0.635637
thorax -7.40291 -2.135 1.73904
lowerneck -15.543 -8.20284 -3.88884
upperneck 37.5971 -12.114 4.50022
head 16.7642 -4.61547 0.478137
rclavicle -5.81445e-014 -4.17448e-015
rhumerus -33.8174 2.83385 -78.0603
rradius 39.611
rwrist -14.2792
rhand -32.8418 -2.77369
rfingers 7.12502
rthumb -6.06152 -32.667
lclavicle -5.81445e-014 -4.17448e-015
lhumerus -41.1587 -43.0248 114.964
lradius 60.4481
lwrist 34.8526
lhand -21.689 17.8581
lfingers 7.12502
lthumb 4.7091 47.7858
rfemur -19.9734 -8.33524 18.6108
rtibia 46.8169
rfoot -46.6139 -5.93814
rtoes -16.2831
lfemur -5.08355 -9.96266 -16.5004
ltibia 31.6009
lfoot -44.4802 -5.9932
ltoes 7.59192
11
root -13.9346 19.2579 -40.0749 6.68481 74.8048 4.78325
lowerback 11.3892 -3.1644 -0.710677
upperback -1.05535 -4.26087 0.637013
thorax -7.40514 -2.03144 1.81771
lowerneck -15.4067 -8.43465 -4.13478
upperneck 37.5199 -12.4536 4.67439
head 16.7531 -4.77071 0.533042
rclavicle -5.15598e-014 -4.77083e-015
rhumerus -33.9945 1.73786 -78.0752
rradius 39.3385
rwrist -14.3962
rhand -32.8225 -3.15048
rfingers 7.12502
rthumb -6.04285 -33.0443
lclavicle -5.15598e-014 -4.77083e-015
lhumerus -41.7777 -43.7337 115.261
lradius 58.6278
lwrist 35.8596
lhand -22.1896 17.3496
lfingers 7.12502
lthumb 4.2257 47.2875
rfemur -19.9138 -8.27974 18.5633
rtibia 46.5063
rfoot -46.8115 -6.21494
rtoes -20.1719
lfemur -5.09755 -10.303 -16.5245
ltibia 31.5533
lfoot -44.7862 -5.53825
ltoes 7.52155
